<?xml version="1.0" encoding="iso-8859-1"?>
<!-- Uploaded to: SVG Repo, www.svgrepo.com, Generator: SVG Repo Mixer Tools -->
<svg fill="#000000" version="1.1" id="Layer_1" xmlns="http://www.w3.org/2000/svg" xmlns:xlink="http://www.w3.org/1999/xlink" 
	 viewBox="0 0 512 512" xml:space="preserve">
<g>
	<g>
		<g>
			<rect x="104.167" y="284.083" width="15.674" height="16"/>
			<rect x="144.167" y="284.083" width="15.674" height="16"/>
			<rect x="184.166" y="284.083" width="15.674" height="16"/>
			<rect x="224.165" y="284.083" width="15.674" height="16"/>
			<rect x="264.164" y="284.083" width="15.674" height="16"/>
			
				<rect x="304.18" y="145.668" transform="matrix(-0.8321 -0.5547 0.5547 -0.8321 482.836 466.3658)" width="15.674" height="28.845"/>
			
				<rect x="336.173" y="145.663" transform="matrix(-0.8321 -0.5547 0.5547 -0.8321 541.454 484.1027)" width="15.674" height="28.846"/>
			<path d="M436.681,420.248l72.001-144h-92.844v-64.001h-32v-88H272.163v88h-32.326V76.248h-95.674v136h-80v112h-48v7.837
				c0,37.157,19.621,69.812,49.043,88.164H0v15.674h376.169v0.168h15.674v-0.168H512v-15.674H436.681z M287.837,139.921h80.327
				v40.326h-80.327V139.921z M287.837,195.922h80.327v16.327h-80.327V195.922z M159.837,91.921h64.327v8.326h-64.327V91.921z
				 M159.837,115.921h64.327v96.326h-64.327V115.921z M79.837,227.921h320.326v16.327H79.837V227.921z M79.837,259.922h320.326
				v16.327h-75.062l-56,48H79.837V259.922z M419.157,420.248h-27.315v-0.159h-15.674v0.159H120
				c-19.006,0-36.616-6.057-51.029-16.327h358.35L419.157,420.248z M52.091,388.247v0.001
				c-11.079-13.373-18.292-30.058-19.909-48.327H274.9l56-48h152.421l-48.163,96.326H52.091z"/>
			<polygon points="352.001,331.921 376.163,331.921 376.163,340.084 391.837,340.084 391.837,331.921 416.001,331.921 
				416.001,316.248 352.001,316.248 			"/>
			<polygon points="391.837,357.441 391.837,348.085 376.163,348.085 376.163,357.441 364.348,349.565 355.653,362.605 384,381.503 
				412.348,362.605 403.653,349.565 			"/>
			<polygon points="384,100.247 335.837,100.247 335.837,84.085 320.163,84.085 320.163,100.247 303.837,100.247 303.837,44.084 
				288.163,44.084 288.163,100.247 272,100.247 272,115.921 384,115.921 			"/>
			<rect x="320.161" y="60.085" width="15.674" height="16.001"/>
			<rect x="288.166" y="20.084" width="15.674" height="16.001"/>
			<rect x="56" y="452.251" width="32" height="15.674"/>
			<rect x="143.999" y="476.243" width="88.003" height="15.674"/>
			<rect x="239.996" y="452.251" width="32" height="15.674"/>
			<rect x="95.996" y="468.249" width="16.001" height="15.674"/>
			<rect x="391.999" y="452.251" width="88.003" height="15.674"/>
			<rect x="360.004" y="468.249" width="24.001" height="15.674"/>
			<rect x="72" y="348.251" width="79.998" height="15.674"/>
		</g>
	</g>
</g>
</svg>